REM Ripping Tool: trurip

FILE "Daisenpuu Custom (1991)(NEC Avenue)(JP).img" BINARY
  TRACK 01 AUDIO
    INDEX 01 00:00:00
  TRACK 02 MODE1/2352
    INDEX 00 00:44:65
    INDEX 01 00:47:65
  TRACK 03 AUDIO
    INDEX 00 00:56:25
    INDEX 01 00:58:25
  TRACK 04 AUDIO
    INDEX 01 08:24:30
  TRACK 05 AUDIO
    INDEX 01 15:28:19
  TRACK 06 AUDIO
    INDEX 01 22:33:60
  TRACK 07 AUDIO
    INDEX 01 29:47:27
  TRACK 08 AUDIO
    INDEX 01 37:09:36
  TRACK 09 MODE1/2352
    INDEX 00 37:16:62
    INDEX 01 37:19:62

REM DISC HASHES
REM CRC32 : 6aa0b2c1
REM MD5   : e2973df062d537bf0923095982fd09d0
REM SHA1  : ab5416a1ed990745dffd50561e24cea39872c9df

REM Gap Append Method: Prev [crc32]
REM Trk 01: ccd25d2f
REM Trk 02: 1caa5b48
REM Trk 03: 94099e33
REM Trk 04: db6c921c
REM Trk 05: 0911e67d
REM Trk 06: 042e064e
REM Trk 07: 3713956c
REM Trk 08: 45dc4e2a
REM Trk 09: ab299525

REM Gap Append Method: Prev [md5]
REM Trk 01: 7938d9aa88f644b60389fa8246f2052e
REM Trk 02: 82053cc7502269280e9a782bae7af6eb
REM Trk 03: 1f2d443281355182960e5335120630f3
REM Trk 04: 170ff3c9fc8b38b556aee8b0356efa3a
REM Trk 05: 44b51af8d6419a492e4068d6445ff8d7
REM Trk 06: 6fe698284755b9ca9a9c965bcc1c4e2b
REM Trk 07: 9994677efceaed14484a7d6ac92e4401
REM Trk 08: eb86d7324c6897e6a1edf9f271769a2a
REM Trk 09: a6eb6ed238d9c779a2e3cf5c629c331c

REM Gap Append Method: Prev [sha1]
REM Trk 01: 0fc7f8840f23f43ebfb7041f71427c165f368105
REM Trk 02: e0542507c1051e7cb93ff9bbdb1408b805ce104d
REM Trk 03: cd409f4ed907678ec5dc1684e0708c2570156989
REM Trk 04: 94b20a72011805a44ab9815d6cd24bcf5ccde3d9
REM Trk 05: 7a6e48fe2cf8068d24c89c392d163aaa5d896307
REM Trk 06: b582648389e6bc9d2a82f2365f9794df6fa96cb5
REM Trk 07: d764212e0d1007b1f3f0758f371cb64ecd791823
REM Trk 08: f5315dbc5627402564064c27a342959f84d8426a
REM Trk 09: 3c0636ecdc6ad4998d110ff6ee24bfed55bd60fd

REM Gap Append Method: None [crc32]
REM Trk 01: b979500c
REM Trk 02: b9b0fa08
REM Trk 03: 94099e33
REM Trk 04: db6c921c
REM Trk 05: 0911e67d
REM Trk 06: 042e064e
REM Trk 07: 3713956c
REM Trk 08: 0d6bdaa4
REM Trk 09: ab299525
REM Gap 02: 16e86594
REM Gap 03: 7abe247f
REM Gap 09: 98f69d62

REM Gap Append Method: None [md5]
REM Trk 01: a25a2c129b7100092cc40e9b6e176a63
REM Trk 02: 719c324845f681722b4043fdeb017f02
REM Trk 03: 1f2d443281355182960e5335120630f3
REM Trk 04: 170ff3c9fc8b38b556aee8b0356efa3a
REM Trk 05: 44b51af8d6419a492e4068d6445ff8d7
REM Trk 06: 6fe698284755b9ca9a9c965bcc1c4e2b
REM Trk 07: 9994677efceaed14484a7d6ac92e4401
REM Trk 08: 1842f6e423d4129c1260c07a29f46e90
REM Trk 09: a6eb6ed238d9c779a2e3cf5c629c331c
REM Gap 02: fbd314ec9876f082e173fbb5baf092aa
REM Gap 03: 9df204fbc98bb8965081cb30a89715fc
REM Gap 09: bf56bd72cd65c9d6e01dc9b0378f97f2

REM Gap Append Method: None [sha1]
REM Trk 01: 9ac3f1a11d434d186466917f1c7955bf7670c910
REM Trk 02: e658cc666859a5101ee9a180b1c48f6432cd09b6
REM Trk 03: cd409f4ed907678ec5dc1684e0708c2570156989
REM Trk 04: 94b20a72011805a44ab9815d6cd24bcf5ccde3d9
REM Trk 05: 7a6e48fe2cf8068d24c89c392d163aaa5d896307
REM Trk 06: b582648389e6bc9d2a82f2365f9794df6fa96cb5
REM Trk 07: d764212e0d1007b1f3f0758f371cb64ecd791823
REM Trk 08: 2479f34d78f6e9add679f8c34b6ef0465284ba80
REM Trk 09: 3c0636ecdc6ad4998d110ff6ee24bfed55bd60fd
REM Gap 02: 08a9af7bae10b281a8edaad6e9ea6cd1646d0ce0
REM Gap 03: cbe29e0bd725ef1194f8c47619dd42078e841de2
REM Gap 09: 409cfb02516687dadd0eecafb278fb8b6f2a9791

REM Gap Append Method: Next [crc32]
REM Trk 01: b979500c
REM Trk 02: ae4ce5cf
REM Trk 03: 0b42dd8b
REM Trk 04: db6c921c
REM Trk 05: 0911e67d
REM Trk 06: 042e064e
REM Trk 07: 3713956c
REM Trk 08: 0d6bdaa4
REM Trk 09: 9b370c85

REM Gap Append Method: Next [md5]
REM Trk 01: a25a2c129b7100092cc40e9b6e176a63
REM Trk 02: 7504141881960216da04a7c161262cf8
REM Trk 03: 5480940d0cec03b3a0751b2004463756
REM Trk 04: 170ff3c9fc8b38b556aee8b0356efa3a
REM Trk 05: 44b51af8d6419a492e4068d6445ff8d7
REM Trk 06: 6fe698284755b9ca9a9c965bcc1c4e2b
REM Trk 07: 9994677efceaed14484a7d6ac92e4401
REM Trk 08: 1842f6e423d4129c1260c07a29f46e90
REM Trk 09: 3242d85b983e26f7bd93f52014c3c8ec

REM Gap Append Method: Next [sha1]
REM Trk 01: 9ac3f1a11d434d186466917f1c7955bf7670c910
REM Trk 02: 6c213a6e276709d085e109d5a07b55e793d6f5df
REM Trk 03: 3fa124fb6b53a9b3a7676023c1a875536e96edcd
REM Trk 04: 94b20a72011805a44ab9815d6cd24bcf5ccde3d9
REM Trk 05: 7a6e48fe2cf8068d24c89c392d163aaa5d896307
REM Trk 06: b582648389e6bc9d2a82f2365f9794df6fa96cb5
REM Trk 07: d764212e0d1007b1f3f0758f371cb64ecd791823
REM Trk 08: 2479f34d78f6e9add679f8c34b6ef0465284ba80
REM Trk 09: e09687280586d52c2b7a34a46281b0e3d8b3373f

